<?xml version="1.0" encoding="UTF-8"?>
<!DOCTYPE svg PUBLIC "-//W3C//DTD SVG 1.0//EN" "http://www.w3.org/TR/2001/REC-SVG-20010904/DTD/svg10.dtd">
<!-- Creator: CorelDRAW X8 -->
<svg xmlns="http://www.w3.org/2000/svg" xml:space="preserve" width="133px" height="133px" version="1.0" style="shape-rendering:geometricPrecision; text-rendering:geometricPrecision; image-rendering:optimizeQuality; fill-rule:evenodd; clip-rule:evenodd"
viewBox="0 0 133 133"
 xmlns:xlink="http://www.w3.org/1999/xlink">
 <defs>
  <style type="text/css">
   <![CDATA[
    .str0 {stroke:#252526;stroke-width:23.5632;stroke-linejoin:round}
    .str1 {stroke:#7B76B6;stroke-width:8.83619;stroke-linejoin:round}
    .fil2 {fill:none}
    .fil1 {fill:#252526}
    .fil0 {fill:#DCDBDD;fill-rule:nonzero}
   ]]>
  </style>
 </defs>
 <g id="Bases">
  <metadata id="CorelCorpID_0Corel-Layer"/>
  <path class="fil0" d="M80 17l-47 0c0,0 -8,0 -8,8 0,7 0,62 0,83 0,8 8,8 8,8 0,0 58,0 66,0 9,0 9,-8 9,-8l0 -66 -28 -25zm20 91l0 0 -67 0 0 -83 42 0 0 25 25 0 0 58z"/>
 </g>
 <g id="Overlays">
  <metadata id="CorelCorpID_1Corel-Layer"/>
  <g id="_2102560266608">
   <path class="fil1 str0" d="M100 77l20 9 0 24 -20 10 -20 -10 0 -24 20 -9z"/>
   <path class="fil2 str1" d="M100 95l0 25 -20 -10 0 -24m20 9l-20 -9 20 -9 20 9 -20 9m0 25l20 -10 0 -24"/>
  </g>
 </g>
</svg>
